# xmcd
#
# Track frame offsets:
#	150
#	26170
#	41184
#	51930
#	85294
#	106957
#	119298
#	144139
#
# Disc length: 2317 seconds
#
# Revision: 0
# Processed by: cddbd v1.5.2PL0 Copyright (c) Steve Scherf et al.
# Submitted via: dBpowerAMP V4.0
#
DISCID=69090b08
DTITLE=oscar benton blues band - benton71
DYEAR=1900
DGENRE=blues
TTITLE0=1-how many years
TTITLE1=2-hurt my feelings
TTITLE2=3 -somebody stolen your heart
TTITLE3=4-I left my blues in san francisco
TTITLE4=5-nothing else matters
TTITLE5=6-I can quit you
TTITLE6=7-the sun is shinning
TTITLE7=8-I,ll be around
EXTD=benton71
EXTT0=
EXTT1=
EXTT2=
EXTT3=
EXTT4=
EXTT5=
EXTT6=
EXTT7=
PLAYORDER=
